<?xml version="1.0" standalone="no"?>
<!DOCTYPE svg PUBLIC "-//W3C//DTD SVG 20010904//EN"
 "http://www.w3.org/TR/2001/REC-SVG-20010904/DTD/svg10.dtd">
<svg version="1.0" xmlns="http://www.w3.org/2000/svg"
 width="1536.000000pt" height="1024.000000pt" viewBox="0 0 1536.000000 1024.000000"
 preserveAspectRatio="xMidYMid meet">

<g transform="translate(0.000000,1024.000000) scale(0.100000,-0.100000)"
fill="#000000" stroke="none">
<path d="M6975 9654 c-245 -38 -493 -139 -685 -280 -340 -248 -599 -693 -705
-1207 -14 -70 -39 -246 -56 -390 -16 -144 -32 -270 -35 -279 -5 -16 -11 -15
-62 11 -102 51 -182 74 -276 79 -113 6 -179 -9 -254 -58 -212 -136 -214 -451
-6 -704 60 -73 146 -147 263 -227 42 -29 79 -57 84 -63 32 -45 -80 -249 -258
-471 -114 -142 -129 -172 -133 -263 -4 -66 -1 -79 27 -137 55 -112 164 -190
331 -238 l80 -23 -34 -33 -34 -33 -48 38 c-197 151 -553 208 -841 135 -402
-103 -698 -410 -810 -840 -31 -119 -43 -370 -24 -500 54 -369 239 -647 541
-814 83 -46 257 -104 338 -113 34 -4 61 -9 60 -13 -2 -3 -24 -49 -50 -101 -62
-125 -88 -233 -95 -391 -15 -345 117 -651 358 -830 l69 -52 -70 -64 c-85 -79
-136 -172 -153 -282 -37 -243 127 -475 373 -527 62 -13 91 -13 243 1 392 33
892 63 1502 87 410 16 1841 16 2265 0 563 -22 1169 -59 1490 -91 115 -12 199
1 288 45 126 62 210 167 247 309 34 132 0 286 -87 397 l-29 37 33 14 c80 33
138 125 146 227 5 80 -10 122 -96 270 l-62 104 29 31 c70 73 140 217 160 329
6 33 11 105 11 161 0 158 -40 288 -125 405 l-33 46 19 24 c51 64 59 97 94 358
31 234 85 676 85 695 0 4 51 5 113 1 103 -6 117 -5 165 16 99 43 142 115 166
285 56 390 51 474 -38 573 -55 60 -106 77 -326 106 -398 52 -1012 116 -1111
116 -67 0 -128 -25 -176 -72 l-42 -41 -108 50 c-113 54 -227 93 -328 113 -33
6 -70 18 -82 26 -21 13 -103 114 -103 126 0 3 34 9 76 13 275 26 536 202 624
421 13 33 28 62 33 65 5 4 40 9 77 13 128 12 313 82 449 170 85 55 215 177
282 265 28 37 74 116 104 176 277 561 55 1230 -502 1518 -164 85 -304 118
-488 118 -195 0 -343 -35 -510 -119 -204 -102 -386 -283 -502 -497 -18 -33
-33 -56 -33 -52 -1 40 -57 397 -76 489 -61 291 -163 549 -295 746 -66 98 -84
120 -177 215 -208 213 -462 338 -779 386 -98 15 -378 12 -488 -5z m542 -123
c401 -83 700 -316 890 -696 125 -249 188 -491 243 -927 17 -130 35 -261 41
-290 6 -29 13 -127 14 -218 4 -193 15 -272 56 -395 60 -175 176 -353 292 -445
58 -47 176 -110 205 -110 11 0 62 19 113 42 89 41 99 43 190 43 88 0 99 -2
136 -28 125 -87 117 -269 -19 -413 -206 -219 -525 -273 -815 -139 -40 19 -73
30 -73 26 0 -18 120 -138 174 -173 48 -31 63 -48 89 -100 17 -35 33 -65 34
-68 2 -3 -11 -7 -29 -8 -47 -4 -100 -19 -206 -58 -184 -68 -271 -123 -404
-258 -122 -123 -156 -140 -273 -140 -75 -1 -100 4 -152 26 -87 37 -158 86
-281 196 -183 164 -269 208 -402 206 -123 -2 -196 -38 -359 -173 l-84 -70 -36
29 c-67 54 -102 63 -281 69 l-165 6 -52 99 c-60 114 -89 148 -155 182 -59 30
-151 32 -229 5 -30 -10 -115 -50 -189 -89 -188 -98 -254 -117 -405 -117 -100
1 -129 5 -176 23 -130 52 -209 134 -209 218 0 62 9 80 101 194 161 203 264
378 290 495 11 50 10 57 -12 102 -20 40 -41 60 -129 120 -255 175 -373 338
-374 518 0 127 61 218 170 251 61 18 106 18 179 -2 54 -14 97 -33 290 -133 33
-17 67 -31 76 -31 23 0 44 109 79 409 46 399 89 600 176 820 100 253 214 432
384 602 221 221 509 372 780 408 47 6 96 13 110 15 62 11 301 -3 397 -23z
m2568 -1185 c281 -83 496 -259 629 -516 175 -338 150 -737 -64 -1050 -156
-227 -415 -386 -692 -425 -51 -8 -50 -9 -62 67 -4 20 -26 64 -51 96 -36 50
-56 67 -119 98 -69 34 -83 37 -158 37 -66 0 -99 -6 -158 -28 -88 -33 -114 -34
-208 -6 -60 18 -78 30 -129 81 -148 150 -240 376 -250 618 -9 192 20 327 104
497 117 235 303 404 551 500 133 51 222 65 382 61 109 -3 153 -9 225 -30z
m-680 -2940 c116 -30 287 -111 339 -159 34 -32 36 -38 36 -93 -1 -54 -8 -73
-88 -229 -103 -202 -98 -199 -224 -132 -117 63 -178 81 -275 82 -68 0 -86 -4
-110 -21 -15 -12 -28 -27 -28 -35 0 -25 79 -69 222 -123 359 -138 497 -254
539 -456 18 -89 6 -260 -26 -342 -57 -152 -192 -264 -387 -320 -69 -20 -99
-23 -258 -22 -161 1 -191 4 -278 27 -150 40 -342 137 -424 214 -31 29 -33 35
-33 98 0 65 2 70 76 198 42 73 84 140 92 150 21 24 61 21 103 -7 132 -90 319
-156 437 -156 47 0 132 31 132 48 0 14 -42 48 -85 70 -22 11 -105 45 -184 76
-175 69 -285 132 -360 207 -103 102 -151 225 -151 384 0 159 48 282 151 384
136 136 304 193 549 186 104 -2 158 -9 235 -29z m-4560 -50 c106 -32 218 -89
246 -125 18 -22 20 -37 17 -96 -3 -62 -13 -89 -78 -230 -41 -88 -80 -170 -88
-183 -22 -34 -58 -38 -111 -12 -236 116 -482 21 -561 -216 -31 -91 -25 -214
12 -296 32 -69 96 -135 163 -168 70 -34 216 -36 287 -3 46 21 98 64 98 80 0 4
-49 4 -108 -1 -132 -11 -158 -6 -177 37 -17 40 -37 310 -25 343 20 51 72 62
468 100 202 20 226 17 253 -31 20 -36 37 -236 46 -545 l5 -205 -29 -55 c-60
-114 -254 -237 -448 -286 -331 -82 -659 -5 -876 206 -162 158 -246 344 -270
600 -53 553 245 991 751 1105 105 24 312 14 425 -19z m5513 -11 c488 -50 891
-100 935 -117 15 -6 35 -24 43 -39 16 -31 12 -79 -27 -369 -17 -125 -23 -148
-43 -169 l-24 -24 -178 22 c-97 12 -179 20 -180 18 -2 -2 -33 -248 -69 -548
-36 -299 -70 -554 -75 -567 -17 -41 -48 -43 -238 -22 -97 11 -192 23 -210 26
-30 6 -82 53 -82 76 0 17 58 522 94 818 18 151 33 276 32 277 -1 1 -89 11
-196 23 -112 13 -204 28 -217 36 -34 21 -36 59 -14 266 28 254 29 263 53 293
17 22 27 25 84 25 36 0 176 -11 312 -25z m-4458 -40 c16 -8 32 -25 36 -37 5
-13 8 -144 9 -292 l0 -270 65 2 c36 1 98 5 138 8 l72 6 0 265 0 264 25 24 24
25 219 0 c249 0 258 -2 271 -75 4 -22 -1 -335 -10 -695 -10 -360 -18 -699 -18
-752 -1 -86 -4 -100 -24 -123 -22 -26 -23 -26 -212 -32 l-190 -6 -30 26 -30
25 -7 204 c-3 111 -6 224 -7 251 l-1 47 -48 0 c-27 0 -90 -3 -140 -6 l-92 -7
0 -259 0 -259 -25 -24 c-15 -16 -36 -25 -57 -26 -18 0 -98 -4 -177 -8 -154 -9
-194 -3 -212 31 -6 10 -23 200 -40 421 -16 221 -40 555 -54 742 -14 187 -25
365 -25 395 0 98 22 111 220 129 63 6 131 13 150 14 87 9 143 6 170 -8z m1890
-110 c90 -22 214 -85 292 -149 117 -97 209 -245 248 -400 28 -112 28 -346 0
-465 -58 -242 -233 -426 -480 -503 -65 -20 -95 -23 -230 -23 -171 0 -219 10
-340 69 -180 88 -311 245 -370 445 -45 153 -45 386 1 531 70 222 238 403 441
476 126 45 296 53 438 19z m-79 -1706 l22 -22 -8 -466 c-4 -256 -8 -470 -8
-476 -1 -6 77 -12 211 -15 197 -5 215 -7 228 -24 11 -15 14 -57 13 -185 0 -91
-3 -161 -5 -155 -3 8 -16 7 -46 -3 -57 -20 -766 -15 -791 5 -14 12 -16 9 -20
-25 l-4 -38 -2 45 c-5 105 -19 894 -20 1103 l-1 228 25 24 c24 25 26 25 205
25 171 0 181 -1 201 -21z m-1075 -10 c196 -36 373 -165 463 -338 60 -116 82
-211 82 -354 0 -64 -3 -122 -7 -129 -4 -6 -7 -27 -6 -47 0 -20 -2 -30 -5 -23
-3 8 -16 -12 -29 -44 -53 -132 -176 -271 -299 -339 -100 -56 -176 -76 -320
-85 l-130 -8 130 2 c112 3 140 7 205 30 41 15 85 28 98 28 12 0 22 6 22 15 0
8 5 11 10 8 6 -3 10 -1 10 5 0 6 5 8 10 5 6 -3 10 -1 10 5 0 6 5 8 10 5 6 -3
10 1 10 9 0 14 11 20 31 18 4 -1 15 8 24 18 10 11 14 20 10 20 -4 0 7 10 26
23 18 12 39 34 46 47 7 14 13 22 13 18 0 -4 12 5 26 19 15 15 37 60 53 106 14
45 27 74 29 65 5 -24 -36 -136 -74 -205 -35 -64 -138 -183 -157 -183 -5 0 -2
10 9 23 l19 22 -23 -19 c-12 -11 -20 -21 -17 -24 6 -7 -15 -32 -27 -32 -5 0
-6 6 -2 13 4 7 3 9 -2 4 -5 -5 -9 -13 -9 -19 0 -16 -122 -75 -194 -93 -111
-28 -242 -31 -343 -6 -114 27 -277 108 -263 130 2 5 -4 16 -15 26 -21 19 -27
50 -11 59 5 3 19 -3 32 -13 71 -55 225 -122 278 -120 15 0 -5 9 -44 19 -92 25
-199 80 -263 136 -28 25 -56 43 -61 40 -5 -4 -13 -1 -17 5 -5 8 -3 9 6 4 9 -6
11 -4 5 5 -6 10 -11 10 -20 -3 -7 -9 -16 -13 -20 -9 -27 24 42 -62 77 -96 24
-23 38 -42 31 -42 -26 0 -126 128 -170 217 -80 166 -112 425 -70 583 56 211
210 391 396 461 124 47 295 62 427 38z m2434 -20 c106 -29 199 -81 281 -157
81 -75 136 -163 175 -277 23 -68 27 -97 28 -200 1 -143 -15 -207 -83 -339 -79
-154 -208 -265 -373 -323 -98 -34 -281 -43 -390 -19 -255 57 -451 253 -513
513 -25 105 -17 261 19 368 65 190 203 341 379 412 136 55 326 64 477 22z
m-3695 -14 c88 -16 225 -63 261 -90 10 -8 -10 -2 -46 14 -275 120 -571 94
-804 -73 -110 -79 -185 -176 -247 -319 -18 -42 -35 -75 -37 -73 -7 8 48 150
80 204 47 81 180 211 258 255 155 85 347 114 535 82z m4955 -30 c163 -29 272
-78 355 -160 47 -46 106 -145 105 -177 -1 -7 -13 12 -27 42 -34 70 -130 166
-208 207 -70 37 -176 67 -291 83 -87 13 -506 9 -535 -4 -9 -4 -21 -17 -27 -29
-6 -12 -11 -17 -11 -11 -1 7 7 22 17 34 15 19 33 24 103 31 120 11 419 2 519
-16z m-643 -222 c-2 -16 -4 -5 -4 22 0 28 2 40 4 28 2 -13 2 -35 0 -50z m-10
-180 c-2 -16 -4 -3 -4 27 0 30 2 43 4 28 2 -16 2 -40 0 -55z m1120 25 c-3 -8
-6 -5 -6 6 -1 11 2 17 5 13 3 -3 4 -12 1 -19z m-1130 -205 c-2 -16 -4 -5 -4
22 0 28 2 40 4 28 2 -13 2 -35 0 -50z m708 9 c-16 -27 -62 -62 -82 -62 -4 0 7
9 25 20 18 11 41 34 50 50 9 16 18 27 20 25 2 -2 -4 -17 -13 -33z m-288 -68
c-3 -3 -12 -4 -19 -1 -8 3 -5 6 6 6 11 1 17 -2 13 -5z m126 -11 c-13 -2 -35
-2 -50 0 -16 2 -5 4 22 4 28 0 40 -2 28 -4z m-4694 -252 c-25 -18 -78 -49 -69
-38 12 13 75 55 84 56 5 1 -2 -7 -15 -18z m-109 -61 c-8 -5 -19 -10 -25 -10
-5 0 -3 5 5 10 8 5 20 10 25 10 6 0 3 -5 -5 -10z m-43 -16 c-3 -3 -12 -4 -19
-1 -8 3 -5 6 6 6 11 1 17 -2 13 -5z m-94 -11 c-13 -2 -35 -2 -50 0 -16 2 -5 4
22 4 28 0 40 -2 28 -4z m772 -153 c3 -5 2 -10 -4 -10 -5 0 -13 5 -16 10 -3 6
-2 10 4 10 5 0 13 -4 16 -10z m1299 -219 c-2 -3 -12 3 -22 13 -16 17 -16 18 5
5 12 -7 20 -15 17 -18z m584 -8 c-103 -2 -274 -2 -380 0 -106 1 -22 2 187 2
209 0 296 -1 193 -2z m-386 -512 c37 -102 65 -188 62 -193 -3 -4 -27 -8 -54
-8 -44 0 -49 2 -59 30 -10 29 -12 30 -68 30 -56 0 -59 -1 -70 -30 -10 -28 -15
-30 -62 -30 -28 0 -51 3 -51 7 0 20 125 369 134 376 6 4 31 6 56 5 l45 -3 67
-184z m322 87 l65 -102 3 100 3 99 45 0 45 0 3 -193 2 -193 -47 3 -48 3 -65
98 -65 99 -3 -102 -3 -101 -47 3 -47 3 -3 180 c-1 98 0 185 2 192 3 8 23 13
50 13 l44 0 66 -102z m564 86 c7 -2 12 -20 12 -43 0 -44 -15 -55 -65 -45 l-32
6 -6 -93 c-4 -51 -7 -116 -7 -146 l0 -53 -50 0 -50 0 0 144 0 145 -47 3 c-46
3 -48 4 -51 36 -6 59 5 63 152 56 72 -3 137 -7 144 -10z m-1260 -41 l-3 -48
-77 -3 -78 -3 0 -29 0 -30 65 0 c60 0 65 -2 71 -24 12 -51 3 -60 -68 -70 l-66
-9 5 -51 c6 -62 -8 -79 -64 -74 l-38 3 -6 70 c-9 98 -10 300 -2 308 3 4 64 7
135 7 l129 0 -3 -47z m1544 35 c19 -15 131 -355 124 -375 -3 -8 -22 -13 -51
-13 -42 0 -46 2 -59 35 -15 34 -17 35 -70 35 -50 0 -56 -2 -68 -27 -11 -23
-21 -29 -56 -31 -31 -2 -44 1 -48 13 -7 17 113 341 134 362 17 17 73 17 94 1z
m461 -26 c40 -23 44 -43 15 -77 l-24 -27 -41 22 c-46 23 -86 20 -81 -7 3 -18
10 -22 90 -56 31 -14 61 -35 68 -47 15 -28 15 -91 1 -119 -33 -61 -145 -80
-228 -40 -60 29 -68 47 -37 86 l24 31 48 -26 c35 -18 55 -23 76 -18 44 11 28
37 -39 63 -75 29 -105 59 -112 109 -6 50 28 104 77 122 44 15 123 8 163 -16z
m-2724 12 c95 -19 129 -146 59 -221 l-20 -21 36 -53 c20 -30 36 -59 36 -65 0
-7 -21 -13 -52 -16 l-51 -3 -36 57 c-47 75 -73 79 -71 11 3 -75 4 -73 -49 -73
l-48 0 -7 92 c-3 50 -6 135 -6 189 0 93 1 98 23 102 36 7 152 7 186 1z m3019
-84 c20 -43 39 -79 42 -80 3 0 23 29 43 64 21 35 44 69 52 76 16 13 100 0 100
-15 -4 -144 -19 -353 -26 -361 -5 -6 -26 -8 -51 -5 l-43 6 4 93 c1 50 1 92 -2
92 -3 0 -19 -22 -37 -50 -18 -27 -40 -50 -49 -50 -11 0 -28 23 -48 63 l-32 62
0 -56 c-1 -31 -4 -77 -7 -103 l-7 -47 -46 3 -46 3 2 100 c2 55 5 142 9 193 l6
92 49 0 50 0 37 -80z m-3416 48 c98 -55 124 -211 51 -306 -63 -83 -212 -86
-282 -7 -86 99 -57 271 54 321 48 21 131 17 177 -8z m-424 -18 c51 -23 60 -41
38 -76 -23 -34 -43 -40 -76 -20 -35 20 -59 20 -87 1 -49 -34 -47 -139 2 -171
31 -20 85 -12 110 16 17 19 18 19 51 -3 19 -12 34 -28 34 -35 0 -24 -56 -70
-100 -82 -129 -35 -240 52 -240 188 0 152 134 243 268 182z m4384 10 c25 0 29
-6 47 -67 55 -190 84 -315 73 -322 -6 -4 -29 -5 -52 -3 -33 3 -41 9 -46 29 -7
28 -39 43 -92 43 -33 0 -39 -4 -49 -30 -9 -24 -17 -30 -40 -30 -40 0 -73 11
-73 23 0 13 140 338 153 355 6 8 20 11 31 8 12 -3 33 -6 48 -6z m534 -110 c31
0 64 -47 64 -90 0 -52 -13 -76 -52 -96 -86 -44 -178 49 -133 136 17 32 69 63
93 55 8 -3 20 -5 28 -5z"/>
<path d="M7893 8631 c-136 -34 -216 -197 -216 -441 0 -108 4 -136 27 -207 47
-144 125 -230 220 -240 121 -14 229 93 271 269 19 81 19 255 0 336 -16 68 -53
148 -93 200 -49 64 -140 100 -209 83z m51 -141 c46 -17 68 -66 64 -144 -3 -62
-7 -71 -36 -97 -56 -50 -129 -33 -158 37 -28 68 -11 152 41 192 31 24 51 27
89 12z"/>
<path d="M6805 8566 c-80 -37 -143 -121 -185 -246 -34 -101 -39 -281 -11 -383
26 -96 51 -146 98 -198 149 -165 367 -85 453 165 31 90 42 211 30 312 -35 278
-206 434 -385 350z m114 -131 c43 -22 64 -76 59 -148 -4 -54 -8 -63 -41 -93
-80 -74 -179 -14 -179 107 1 113 78 177 161 134z"/>
<path d="M7370 7652 c-124 -66 -183 -291 -114 -429 40 -80 88 -116 163 -121
88 -6 147 33 200 133 24 45 26 60 26 160 0 96 -3 116 -24 155 -28 55 -57 87
-93 106 -38 20 -117 18 -158 -4z"/>
<path d="M9665 8305 c-536 -99 -887 -642 -755 -1168 38 -150 108 -284 213
-402 40 -46 157 -139 131 -105 -9 12 21 57 152 224 l163 210 -34 37 c-101 112
-129 276 -74 423 46 123 189 232 322 245 l62 6 6 95 c4 52 10 175 14 273 l7
177 -69 -1 c-37 0 -99 -7 -138 -14z m-384 -317 c29 -35 46 -57 36 -49 -20 16
-101 111 -94 111 2 0 28 -28 58 -62z m104 -118 c10 -11 16 -20 13 -20 -3 0
-13 9 -23 20 -10 11 -16 20 -13 20 3 0 13 -9 23 -20z"/>
<path d="M9938 8303 c7 -3 16 -2 19 1 4 3 -2 6 -13 5 -11 0 -14 -3 -6 -6z"/>
<path d="M10463 8052 c45 -46 46 -48 30 -67 -18 -19 -18 -19 5 0 l23 19 -48
48 c-26 26 -49 48 -52 48 -3 0 16 -22 42 -48z"/>
<path d="M10405 7908 l-40 -43 43 40 c39 36 47 45 39 45 -2 0 -21 -19 -42 -42z"/>
<path d="M10299 7813 l-34 -38 38 34 c20 19 37 36 37 38 0 8 -8 0 -41 -34z"/>
<path d="M10219 7743 c-13 -16 -12 -17 4 -4 9 7 17 15 17 17 0 8 -8 3 -21 -13z"/>
<path d="M10424 6638 l-19 -23 23 19 c21 18 27 26 19 26 -2 0 -12 -10 -23 -22z"/>
<path d="M7502 4654 c-60 -30 -106 -87 -127 -158 -19 -62 -19 -80 1 -145 10
-36 29 -67 62 -101 142 -147 379 -72 422 134 8 41 7 62 -5 103 -47 159 -212
237 -353 167z"/>
<path d="M6387 3085 c-104 -40 -164 -132 -172 -267 -11 -163 89 -285 248 -304
125 -15 253 68 290 186 27 86 8 151 -66 228 -23 23 -37 42 -33 42 5 0 3 7 -4
15 -7 8 -17 15 -23 15 -6 0 -2 -7 9 -15 26 -20 14 -19 -37 5 -59 26 -159 26
-217 0 -69 -31 -101 -58 -132 -113 -29 -50 -30 -51 -24 -17 16 88 70 167 138
203 59 31 193 31 253 -1 49 -26 90 -73 114 -134 10 -24 18 -37 18 -30 3 48
-69 141 -133 174 -53 27 -174 34 -229 13z"/>
<path d="M6410 3052 c0 -4 12 -8 28 -9 23 -1 24 -1 7 7 -26 11 -35 12 -35 2z"/>
<path d="M6556 3037 l-29 -13 38 -12 c22 -6 41 -9 44 -6 3 3 -5 7 -17 11 -18
4 -20 8 -11 19 14 17 12 17 -25 1z"/>
<path d="M6386 3015 c-21 -7 -44 -19 -50 -25 -8 -9 -4 -9 14 0 14 8 45 19 70
26 25 7 36 12 25 13 -11 0 -37 -6 -59 -14z"/>
<path d="M6286 2954 c-5 -14 -4 -15 9 -4 17 14 19 20 6 20 -5 0 -12 -7 -15
-16z"/>
<path d="M5840 2533 c0 -14 95 -159 111 -169 7 -4 1 8 -13 27 -15 19 -43 61
-62 93 -20 33 -36 55 -36 49z"/>
<path d="M7000 2275 c-20 -24 -6 -28 15 -5 10 11 13 20 8 20 -6 0 -16 -7 -23
-15z"/>
<path d="M6155 2131 c-6 -11 13 -26 22 -17 4 3 1 6 -6 6 -7 0 -9 5 -6 10 3 6
4 10 1 10 -3 0 -7 -4 -11 -9z"/>
<path d="M6828 2124 c-38 -20 -36 -28 2 -9 17 9 30 18 30 20 0 7 -1 6 -32 -11z"/>
<path d="M6224 2088 c10 -6 22 -6 26 -2 5 5 -3 10 -18 11 -22 1 -24 0 -8 -9z"/>
<path d="M6294 2089 c-4 -7 -3 -9 4 -5 5 3 13 0 15 -6 4 -9 6 -10 6 -1 1 17
-16 25 -25 12z"/>
<path d="M6598 2043 c7 -3 16 -2 19 1 4 3 -2 6 -13 5 -11 0 -14 -3 -6 -6z"/>
<path d="M8770 3087 c-19 -6 -61 -36 -92 -67 -70 -71 -93 -135 -86 -244 10
-148 106 -248 252 -263 202 -21 353 181 292 392 -14 46 -29 69 -74 114 -37 37
-71 61 -98 69 -50 14 -146 14 -194 -1z"/>
<path d="M7412 1560 c-5 -14 -13 -40 -17 -57 -6 -32 -5 -33 24 -33 16 0 31 3
34 8 2 4 -4 30 -14 57 -16 48 -17 49 -27 25z"/>
<path d="M8647 1525 c-9 -27 -17 -50 -17 -51 0 -1 14 -4 30 -6 25 -4 30 -1 29
16 0 12 -6 37 -13 56 l-13 34 -16 -49z"/>
<path d="M6347 1593 c-9 -8 -9 -46 -1 -67 7 -19 64 -22 82 -4 18 18 14 56 -7
68 -22 11 -64 13 -74 3z"/>
<path d="M5934 1570 c-86 -35 -64 -193 26 -193 87 0 110 147 29 188 -15 8 -29
15 -31 14 -2 0 -13 -4 -24 -9z"/>
<path d="M9957 1463 c-9 -25 -16 -47 -15 -49 2 -1 16 -6 32 -10 l29 -7 -7 43
c-11 70 -20 75 -39 23z"/>
<path d="M10560 1506 c0 -2 8 -10 18 -17 15 -13 16 -12 3 4 -13 16 -21 21 -21
13z"/>
<path d="M10569 1373 c-13 -16 -12 -17 4 -4 16 13 21 21 13 21 -2 0 -10 -8
-17 -17z"/>
<path d="M5010 8677 c-21 -71 -31 -89 -74 -133 -36 -35 -65 -54 -98 -63 -47
-13 -65 -31 -30 -31 9 0 45 -13 79 -30 73 -34 108 -79 138 -179 l18 -62 22 76
c13 44 35 91 52 113 29 35 101 80 153 96 24 7 23 8 -16 20 -111 35 -160 86
-198 205 l-22 71 -24 -83z"/>
<path d="M4543 7895 c-45 -32 -37 -121 13 -144 63 -28 124 8 124 74 0 69 -80
110 -137 70z"/>
<path d="M4250 6892 c0 -31 -37 -126 -62 -157 -11 -14 -18 -28 -16 -30 11 -11
55 69 83 150 6 17 10 13 22 -23 8 -24 17 -41 19 -39 5 5 -26 99 -37 112 -5 5
-9 0 -9 -13z"/>
<path d="M11211 6747 c-26 -134 -105 -226 -220 -261 -27 -8 -40 -16 -31 -19 8
-3 37 -12 65 -21 81 -27 121 -61 160 -139 19 -39 38 -87 41 -108 8 -49 20 -42
28 15 10 63 62 162 101 192 18 14 63 38 99 53 l65 27 -49 13 c-61 16 -130 59
-163 103 -15 19 -39 73 -55 121 l-28 88 -13 -64z"/>
<path d="M4300 6776 c0 -27 141 -138 156 -123 2 2 -14 12 -37 22 -22 10 -58
39 -80 63 -21 25 -39 42 -39 38z"/>
<path d="M4130 6679 c-22 -18 -22 -19 -3 -10 12 6 25 16 28 21 9 15 3 12 -25
-11z"/>
<path d="M4048 6643 c-10 -2 -18 -9 -18 -14 0 -14 20 -11 36 6 16 15 13 16
-18 8z"/>
<path d="M4470 6641 c0 -5 -16 -8 -35 -7 -30 3 -33 1 -23 -11 10 -12 8 -14 -7
-11 -11 1 -20 -2 -20 -9 0 -19 -49 -50 -77 -49 -22 1 -28 -3 -28 -19 0 -12 5
-26 12 -33 9 -9 9 -18 0 -37 -7 -14 -12 -34 -11 -43 0 -9 9 8 20 39 25 71 70
118 143 150 55 24 71 39 41 39 -8 0 -15 -4 -15 -9z m-154 -123 c-18 -26 -22
-17 -5 14 6 11 13 17 16 15 3 -3 -2 -16 -11 -29z"/>
<path d="M4124 6587 c66 -35 105 -85 126 -162 7 -25 17 -48 21 -51 12 -7 11
19 0 32 -9 9 -14 35 -12 66 1 12 7 16 19 12 16 -5 15 -4 -1 9 -10 8 -18 18
-17 21 1 4 -1 12 -4 19 -3 6 -5 1 -5 -13 2 -49 -1 -57 -12 -37 -5 9 -7 22 -3
29 4 6 3 8 -3 5 -6 -4 -18 4 -27 18 -16 24 -110 85 -131 85 -5 0 17 -15 49
-33z"/>
</g>
</svg>
